<svg width="16" height="16" viewBox="0 0 16 16" fill="none" xmlns="http://www.w3.org/2000/svg">
<path d="M14.6467 12.2201C14.6467 12.4601 14.5933 12.7068 14.48 12.9468C14.3667 13.1868 14.22 13.4134 14.0267 13.6268C13.7 13.9868 13.34 14.2468 12.9333 14.4134C12.5333 14.5801 12.1 14.6668 11.6333 14.6668C10.9533 14.6668 10.2267 14.5068 9.45999 14.1801C8.69333 13.8534 7.92666 13.4134 7.16666 12.8601C6.4 12.3001 5.67333 11.6801 4.97999 10.9934C4.29333 10.3001 3.67333 9.57344 3.11999 8.81344C2.57333 8.05344 2.13333 7.29344 1.81333 6.5401C1.49333 5.7801 1.33333 5.05344 1.33333 4.3601C1.33333 3.90677 1.41333 3.47344 1.57333 3.07344C1.73333 2.66677 1.98666 2.29344 2.33999 1.9601C2.76666 1.5401 3.23333 1.33344 3.72666 1.33344C3.91333 1.33344 4.1 1.37344 4.26666 1.45344C4.44 1.53344 4.59333 1.65344 4.71333 1.82677L6.26 4.00677C6.38 4.17344 6.46666 4.32677 6.52666 4.47344C6.58666 4.61344 6.62 4.75344 6.62 4.8801C6.62 5.0401 6.57333 5.2001 6.48 5.35344C6.39333 5.50677 6.26666 5.66677 6.10666 5.82677L5.59999 6.35344C5.52666 6.42677 5.49333 6.51344 5.49333 6.6201C5.49333 6.67344 5.5 6.7201 5.51333 6.77344C5.53333 6.82677 5.55333 6.86677 5.56666 6.90677C5.68666 7.12677 5.89333 7.41344 6.18666 7.7601C6.48666 8.10677 6.80666 8.4601 7.15333 8.81344C7.51333 9.16677 7.85999 9.49344 8.21333 9.79344C8.55999 10.0868 8.84666 10.2868 9.07333 10.4068C9.10666 10.4201 9.14666 10.4401 9.19333 10.4601C9.24666 10.4801 9.3 10.4868 9.36 10.4868C9.47333 10.4868 9.56 10.4468 9.63333 10.3734L10.14 9.87344C10.3067 9.70677 10.4667 9.5801 10.62 9.5001C10.7733 9.40677 10.9267 9.3601 11.0933 9.3601C11.22 9.3601 11.3533 9.38677 11.5 9.44677C11.6467 9.50677 11.8 9.59344 11.9667 9.70677L14.1733 11.2734C14.3467 11.3934 14.4667 11.5334 14.54 11.7001C14.6067 11.8668 14.6467 12.0334 14.6467 12.2201Z" stroke="#A1D5F6" stroke-width="1.5" stroke-miterlimit="10"/>
</svg>
