<svg width="16" height="16" viewBox="0 0 16 16" fill="none" xmlns="http://www.w3.org/2000/svg">
<path d="M14.6467 12.22C14.6467 12.46 14.5933 12.7067 14.48 12.9467C14.3667 13.1867 14.22 13.4134 14.0267 13.6267C13.7 13.9867 13.34 14.2467 12.9333 14.4134C12.5333 14.58 12.1 14.6667 11.6333 14.6667C10.9533 14.6667 10.2267 14.5067 9.45999 14.18C8.69333 13.8534 7.92666 13.4134 7.16666 12.86C6.4 12.3 5.67333 11.68 4.97999 10.9934C4.29333 10.3 3.67333 9.57337 3.11999 8.81337C2.57333 8.05337 2.13333 7.29337 1.81333 6.54004C1.49333 5.78004 1.33333 5.05337 1.33333 4.36004C1.33333 3.90671 1.41333 3.47337 1.57333 3.07337C1.73333 2.66671 1.98666 2.29337 2.33999 1.96004C2.76666 1.54004 3.23333 1.33337 3.72666 1.33337C3.91333 1.33337 4.1 1.37337 4.26666 1.45337C4.44 1.53337 4.59333 1.65337 4.71333 1.82671L6.26 4.00671C6.38 4.17337 6.46666 4.32671 6.52666 4.47337C6.58666 4.61337 6.62 4.75337 6.62 4.88004C6.62 5.04004 6.57333 5.20004 6.48 5.35337C6.39333 5.50671 6.26666 5.66671 6.10666 5.82671L5.59999 6.35337C5.52666 6.42671 5.49333 6.51337 5.49333 6.62004C5.49333 6.67337 5.5 6.72004 5.51333 6.77337C5.53333 6.82671 5.55333 6.86671 5.56666 6.90671C5.68666 7.12671 5.89333 7.41337 6.18666 7.76004C6.48666 8.10671 6.80666 8.46004 7.15333 8.81337C7.51333 9.16671 7.85999 9.49337 8.21333 9.79337C8.55999 10.0867 8.84666 10.2867 9.07333 10.4067C9.10666 10.42 9.14666 10.44 9.19333 10.46C9.24666 10.48 9.3 10.4867 9.36 10.4867C9.47333 10.4867 9.56 10.4467 9.63333 10.3734L10.14 9.87337C10.3067 9.70671 10.4667 9.58004 10.62 9.50004C10.7733 9.40671 10.9267 9.36004 11.0933 9.36004C11.22 9.36004 11.3533 9.38671 11.5 9.44671C11.6467 9.50671 11.8 9.59337 11.9667 9.70671L14.1733 11.2734C14.3467 11.3934 14.4667 11.5334 14.54 11.7C14.6067 11.8667 14.6467 12.0334 14.6467 12.22Z" stroke="#00B3F0" stroke-width="1.5" stroke-miterlimit="10"/>
</svg>
